<svg width="31" height="31" viewBox="0 0 31 21" fill="none" xmlns="http://www.w3.org/2000/svg">
<path d="M27.3124 16.0169C25.7996 12.6854 25.4261 10.8389 23.4715 5.78694C22.1494 2.36994 18.5193 0.242938 14.6505 0.680938C12.9703 0.871438 8.81783 2.24844 7.64138 6.13194C6.92838 8.48244 5.97203 10.4804 5.49618 11.9834C2.93403 20.0909 0.0820312 20.4194 0.0820312 20.4194C0.0820312 20.4194 0.988781 20.8664 3.12468 20.8574C4.61888 20.8514 7.64758 19.9019 9.80208 17.6609C12.0852 15.2879 11.8341 11.9429 13.226 11.3324C13.226 11.3324 12.6556 10.6034 11.7985 10.3829C10.9398 10.1639 9.42388 10.1579 8.13583 11.7854C5.85268 14.6684 4.19418 16.0154 4.19418 16.0154C4.19418 16.0154 5.24198 14.6129 6.88188 11.5034C8.25208 8.90544 8.42413 8.62044 9.96638 7.10544C11.0436 6.04644 12.9067 6.68544 13.2632 6.55344C13.5794 6.43644 13.6337 5.92644 13.6337 4.76694C13.6337 3.37344 14.4428 3.14244 14.7171 2.68344C15.4301 1.49244 16.3353 1.15644 16.3353 1.15644C16.3353 1.15644 16.1695 2.29944 16.3989 2.76594C16.5833 3.14094 17.4932 3.28644 17.4808 5.10744C17.473 6.29394 17.7861 6.54144 17.9907 6.57444C19.5562 6.83394 19.7639 5.81244 21.796 7.57944C23.208 8.80644 24.5875 12.5954 26.4537 15.2774C26.8226 15.7424 27.0024 16.0139 27.0024 16.0139C26.8149 15.7814 26.632 15.5339 26.4537 15.2774C25.733 14.3684 24.293 12.7139 22.0657 10.8764C20.091 9.24744 17.8714 11.2694 17.9458 11.3234C19.8957 12.7409 18.9579 15.3734 21.92 18.1139C26.2057 22.0799 31.0014 20.4164 31.0014 20.4164C31.0014 20.4164 29.0779 19.9019 27.3124 16.0169Z" fill="#FE3758"/>
</svg>
